<?xml version="1.0" encoding="UTF-8"?>
<!DOCTYPE svg PUBLIC "-//W3C//DTD SVG 1.1//EN" "http://www.w3.org/Graphics/SVG/1.1/DTD/svg11.dtd">
<svg xmlns="http://www.w3.org/2000/svg" xmlns:xlink="http://www.w3.org/1999/xlink" width="273px" height="133px" version="1.1" style="background-color: rgb(255, 255, 255);"><defs/><g transform="translate(0.5,0.5)"><rect x="1" y="1" width="270" height="130" rx="19.5" ry="19.5" fill="#f8cecc" stroke="#b85450" pointer-events="none"/><path d="M 41 43.5 C 21 43.5 16 66 32 70.5 C 16 80.4 34 102 47 93 C 56 111 86 111 96 93 C 116 93 116 75 103.5 66 C 116 48 96 30 78.5 39 C 66 25.5 46 25.5 41 43.5 Z" fill="#ffe0fa" stroke="#d472d7" stroke-miterlimit="10" pointer-events="none"/><path d="M 37 59 L 53 69 L 37 79 Z" fill="#dae8fc" stroke="#6c8ebf" stroke-miterlimit="10" transform="rotate(-90,45,69)" pointer-events="none"/><path d="M 77.5 43 L 89 54.5 L 77.5 66 L 66 54.5 Z" fill="#f5f5f5" stroke="#666666" stroke-miterlimit="10" pointer-events="none"/><path d="M 69.75 75 L 81.25 75 L 87 85 L 81.25 95 L 69.75 95 L 64 85 Z" fill="#fff2cc" stroke="#d6b656" stroke-miterlimit="10" pointer-events="none"/><path d="M 206 43 L 243 66 L 206 89 Z" fill="#dae8fc" stroke="#6c8ebf" stroke-miterlimit="10" transform="rotate(-90,224.5,66)" pointer-events="none"/></g></svg>