<?xml version="1.0" encoding="UTF-8"?>
<!DOCTYPE svg PUBLIC "-//W3C//DTD SVG 1.1//EN" "http://www.w3.org/Graphics/SVG/1.1/DTD/svg11.dtd">
<svg xmlns="http://www.w3.org/2000/svg" xmlns:xlink="http://www.w3.org/1999/xlink" width="479px" height="93px" version="1.1" style="background-color: rgb(255, 255, 255);"><defs/><g transform="translate(0.5,0.5)"><path d="M 89 46 L 134.63 46" fill="none" stroke="#000000" stroke-miterlimit="10" pointer-events="none"/><path d="M 139.88 46 L 132.88 49.5 L 134.63 46 L 132.88 42.5 Z" fill="#000000" stroke="#000000" stroke-miterlimit="10" pointer-events="none"/><path d="M 26 23.5 C 6 23.5 1 46 17 50.5 C 1 60.4 19 82 32 73 C 41 91 71 91 81 73 C 101 73 101 55 88.5 46 C 101 28 81 10 63.5 19 C 51 5.5 31 5.5 26 23.5 Z" fill="#ffe0fa" stroke="#d472d7" stroke-miterlimit="10" pointer-events="none"/><path d="M 22 39 L 38 49 L 22 59 Z" fill="#dae8fc" stroke="#6c8ebf" stroke-miterlimit="10" transform="rotate(-90,30,49)" pointer-events="none"/><path d="M 62.5 23 L 74 34.5 L 62.5 46 L 51 34.5 Z" fill="#f5f5f5" stroke="#666666" stroke-miterlimit="10" pointer-events="none"/><path d="M 54.75 55 L 66.25 55 L 72 65 L 66.25 75 L 54.75 75 L 49 65 Z" fill="#fff2cc" stroke="#d6b656" stroke-miterlimit="10" pointer-events="none"/><path d="M 391 46 L 424.63 46" fill="none" stroke="#000000" stroke-miterlimit="10" pointer-events="none"/><path d="M 429.88 46 L 422.88 49.5 L 424.63 46 L 422.88 42.5 Z" fill="#000000" stroke="#000000" stroke-miterlimit="10" pointer-events="none"/><rect x="291" y="20" width="100" height="52" rx="7.8" ry="7.8" fill="#e1d5e7" stroke="#9673a6" pointer-events="none"/><path d="M 241 46 L 284.63 46" fill="none" stroke="#000000" stroke-miterlimit="10" pointer-events="none"/><path d="M 289.88 46 L 282.88 49.5 L 284.63 46 L 282.88 42.5 Z" fill="#000000" stroke="#000000" stroke-miterlimit="10" pointer-events="none"/><rect x="141" y="20" width="100" height="52" rx="7.8" ry="7.8" fill="#f8cecc" stroke="#b85450" pointer-events="none"/><ellipse cx="454" cy="46" rx="23" ry="23" fill="#d5e8d4" stroke="#82b366" pointer-events="none"/></g></svg>